M48
; DRILL file {KiCad 7.0.7} date Sun Mar 31 17:29:58 2024
; FORMAT={-:-/ absolute / metric / decimal}
; #@! TF.CreationDate,2024-03-31T17:29:58+09:00
; #@! TF.GenerationSoftware,Kicad,Pcbnew,7.0.7
; #@! TF.FileFunction,MixedPlating,1,2
FMAT,2
METRIC
; #@! TA.AperFunction,Plated,PTH,ViaDrill
T1C0.300
; #@! TA.AperFunction,Plated,PTH,ViaDrill
T2C0.500
; #@! TA.AperFunction,Plated,PTH,ComponentDrill
T3C0.800
; #@! TA.AperFunction,Plated,PTH,ComponentDrill
T4C0.900
; #@! TA.AperFunction,Plated,PTH,ComponentDrill
T5C1.000
; #@! TA.AperFunction,NonPlated,NPTH,ComponentDrill
T6C3.200
%
G90
G05
T1
X2.48Y34.4
X2.53Y60.45
X4.29Y15.84
X5.01Y85.63
X5.56Y58.63
X5.69Y20.6
X6.26Y59.37
X6.91Y35.21
X6.92Y57.32
X8.43Y30.98
X9.23Y60.0
X10.11Y60.95
X10.29Y58.63
X10.39Y6.06
X11.14Y33.28
X11.77Y49.04
X12.23Y43.204
X12.24Y12.63
X12.244Y27.6
X12.245Y21.88
X12.29Y52.49
X12.55Y48.25
X12.7Y35.22
X12.741Y33.801
X12.81Y4.24
X13.04Y63.37
X13.07Y32.67
X13.233Y47.671
X13.39Y6.77
X13.42Y31.56
X13.47Y78.54
X13.54Y30.15
X13.72Y58.1
X13.92Y5.47
X13.94Y8.69
X14.34Y61.65
X14.51Y6.08
X14.67Y9.7
X14.88Y45.35
X15.069Y43.75
X15.26Y9.01
X15.6Y42.64
X16.18Y44.32
X16.73Y43.204
X17.13Y88.93
X17.38Y38.56
X17.58Y10.11
X17.77Y65.42
X17.91Y51.2
X17.92Y10.83
X18.22Y39.25
X18.43Y95.62
X18.51Y84.19
X18.7Y13.82
X19.01Y63.37
X19.06Y42.64
X19.65Y88.1
X19.9Y66.52
X20.06Y64.28
X20.95Y32.82
X21.16Y51.64
X21.17Y22.29
X21.23Y15.25
X21.701Y49.629
X22.19Y80.01
X22.29Y50.89
X22.38Y23.11
X22.627Y43.205
X23.19Y88.94
X23.41Y51.61
X23.54Y23.06
X23.58Y63.07
X23.63Y66.53
X23.77Y32.12
X23.78Y11.8
X24.13Y50.16
X24.37Y10.11
X24.47Y31.08
X24.47Y29.01
X24.49Y64.65
X24.54Y25.66
X25.105Y55.95
X25.18Y43.75
X25.23Y10.26
X25.5Y14.52
X25.599Y9.58
X25.85Y88.1
X25.99Y2.13
X26.13Y10.7
X26.31Y35.24
X26.58Y50.89
X26.58Y44.1
X26.71Y11.87
X26.89Y63.66
X27.12Y32.01
X27.36Y33.899
X27.49Y30.08
X27.6Y22.821
X27.65Y13.57
X27.7Y47.67
X28.22Y9.01
X28.56Y89.44
X28.57Y21.86
X28.77Y47.68
X28.83Y14.721
X29.35Y67.21
X29.35Y31.99
X29.78Y55.958
X30.24Y48.25
X30.28Y63.7
X30.72Y28.6
X30.89Y15.252
X31.32Y43.72
X31.37Y34.43
X31.38Y35.54
X31.42Y51.03
X32.01Y15.21
X32.11Y47.67
X32.35Y89.44
X32.36Y82.73
X32.49Y71.4
X32.54Y22.97
X32.58Y63.54
X32.72Y10.77
X32.808Y42.894
X32.83Y32.18
X33.42Y80.01
X33.54Y22.99
X33.56Y34.89
X33.72Y10.168
X34.02Y85.68
X34.25Y25.7
X34.47Y10.69
X34.89Y88.78
X34.895Y87.43
X34.961Y70.72
X35.1Y14.6
X35.255Y66.695
X35.33Y55.4
X35.33Y43.42
X35.95Y20.15
X36.3Y64.65
X36.47Y10.54
X36.86Y52.04
X37.27Y38.36
X37.37Y66.41
X37.55Y16.96
X37.69Y63.8
X37.8Y58.29
X37.86Y41.53
X37.87Y49.05
X37.92Y40.69
X38.22Y15.16
X38.36Y70.72
X38.52Y51.03
X38.79Y9.91
X39.01Y37.82
X39.06Y55.93
X39.381Y15.69
X39.433Y39.25
X40.339Y49.629
X40.35Y63.64
X40.42Y59.1
X40.43Y44.1
X40.47Y48.41
X40.51Y66.41
X40.69Y55.73
X40.9Y20.15
X40.9Y16.24
X41.11Y51.46
X41.2Y33.11
X41.27Y30.16
X41.38Y35.74
X41.7Y26.134
X41.77Y43.32
X42.34Y49.05
X42.34Y45.03
X42.4Y63.28
X42.44Y84.25
X42.52Y85.68
X42.61Y28.63
X42.7Y38.36
X42.73Y26.76
X42.769Y43.75
X42.86Y71.44
X43.13Y18.51
X43.52Y56.49
X43.523Y61.802
X43.77Y67.47
X44.94Y17.44
X44.96Y39.25
X45.98Y70.9
X46.09Y24.52
X46.1Y19.6
X46.287Y44.37
X46.48Y85.79
X46.561Y63.303
X46.78Y39.8
X46.81Y15.09
X47.26Y10.54
X47.48Y15.69
X48.25Y9.91
X48.74Y62.56
X48.89Y24.037
X50.01Y18.51
X50.13Y84.25
X50.65Y39.25
X50.82Y46.33
X50.826Y13.659
X51.04Y64.4
X51.112Y57.642
X51.77Y37.82
X52.24Y67.75
X52.3Y59.23
X52.41Y71.41
X52.44Y18.33
X52.46Y19.6
X52.57Y14.23
X53.51Y84.83
X53.61Y36.29
X53.68Y46.3
X54.37Y60.78
X55.01Y9.45
X55.09Y42.04
X55.22Y79.37
X55.28Y67.53
X55.29Y14.28
X55.39Y19.4
X55.43Y24.68
X55.44Y16.2
X56.73Y89.49
X57.76Y81.16
X58.57Y38.36
X58.66Y65.42
X58.66Y64.41
X58.81Y18.33
X58.89Y73.54
X59.85Y38.2
X60.01Y67.53
X60.05Y54.71
X60.18Y39.8
X60.185Y24.8
X60.87Y24.19
X62.65Y88.78
X62.725Y45.03
X62.74Y24.26
X63.17Y19.96
X63.759Y38.98
X64.29Y41.48
X64.46Y75.18
X65.26Y10.31
X66.5Y24.26
X66.62Y39.12
X66.65Y41.68
X66.65Y37.17
X66.69Y85.07
X67.58Y10.121
X67.8Y19.97
X68.38Y87.42
X68.95Y46.9
X70.32Y45.64
X70.34Y23.29
X70.55Y18.54
X70.84Y67.1
X70.97Y82.75
X71.0Y55.23
X72.18Y92.04
X72.51Y71.41
X72.77Y9.59
X72.88Y40.69
X73.56Y36.37
X74.05Y69.89
X75.4Y87.42
X75.55Y45.94
X75.55Y39.09
X76.06Y18.6
X77.17Y64.18
X77.32Y2.13
X77.96Y23.98
X78.06Y53.49
X78.46Y7.13
X78.64Y22.57
X79.36Y24.51
X79.36Y18.7
X80.26Y38.97
X81.6Y4.16
X81.85Y50.15
X81.982Y22.002
X83.06Y44.37
X83.13Y38.91
X83.14Y18.49
X83.49Y8.21
X84.58Y92.11
X85.61Y1.21
X88.4Y49.49
X88.95Y57.16
X89.64Y12.21
X91.45Y27.71
X93.51Y39.64
X93.84Y88.29
X95.47Y10.37
X96.17Y84.19
X96.91Y46.48
T2
X4.37Y81.15
X4.37Y73.94
X4.37Y53.69
X4.37Y46.61
X4.37Y21.91
X11.95Y53.68
X11.95Y69.02
X12.03Y81.16
X24.41Y1.16
X29.8Y81.16
X42.14Y21.02
X44.94Y69.9
X44.94Y21.02
X44.95Y43.22
X53.84Y1.16
X85.61Y21.02
X86.25Y30.53
X86.29Y43.22
X88.02Y21.02
T3
X7.06Y53.7
X7.06Y51.16
X8.85Y89.13
X8.85Y86.63
X9.92Y53.7
X9.92Y51.16
X10.9Y73.445
X12.035Y91.71
X12.035Y76.47
X13.44Y73.445
X14.335Y69.02
X14.335Y66.52
X14.45Y53.68
X14.45Y51.18
X14.575Y91.71
X14.575Y76.47
X15.98Y73.445
X17.115Y91.71
X17.115Y76.47
X17.475Y69.03
X17.475Y61.41
X17.485Y58.31
X17.55Y53.68
X17.55Y46.06
X18.52Y73.445
X19.655Y91.71
X19.655Y76.47
X20.015Y69.03
X20.015Y61.41
X20.025Y58.31
X20.09Y53.68
X20.09Y46.06
X21.06Y73.445
X21.68Y12.63
X22.195Y91.71
X22.195Y76.47
X22.251Y30.1
X22.251Y27.6
X22.555Y69.03
X22.555Y61.41
X22.565Y58.31
X22.63Y53.68
X22.63Y46.06
X23.6Y73.445
X24.735Y91.71
X24.735Y76.47
X25.095Y69.03
X25.095Y61.41
X25.105Y58.31
X25.17Y53.68
X25.17Y46.06
X26.14Y73.445
X27.275Y91.71
X27.275Y76.47
X27.635Y69.03
X27.635Y61.41
X27.645Y58.31
X27.71Y53.68
X27.71Y46.06
X28.68Y73.445
X29.3Y12.63
X29.815Y91.71
X29.815Y76.47
X30.175Y69.03
X30.175Y61.41
X30.185Y58.31
X30.25Y53.68
X30.25Y46.06
X31.22Y73.445
X32.355Y91.71
X32.355Y76.47
X32.715Y69.03
X32.715Y61.41
X32.725Y58.31
X32.79Y53.68
X32.79Y46.06
X32.89Y12.63
X32.919Y30.1
X32.919Y27.6
X34.895Y91.71
X34.895Y76.47
X34.95Y73.445
X35.255Y69.03
X35.255Y61.41
X35.33Y53.68
X35.33Y46.06
X37.435Y91.71
X37.435Y76.47
X37.49Y73.445
X37.795Y69.03
X37.795Y61.41
X37.87Y53.68
X37.87Y46.06
X39.975Y91.71
X39.975Y76.47
X40.03Y73.445
X40.335Y69.03
X40.335Y61.41
X40.41Y53.68
X40.41Y46.06
X40.51Y12.63
X42.515Y91.71
X42.515Y76.47
X42.52Y94.41
X42.57Y73.445
X44.94Y51.21
X44.94Y29.8
X44.945Y48.585
X44.945Y33.345
X44.945Y27.16
X44.945Y11.92
X45.055Y91.71
X45.055Y76.47
X45.11Y73.445
X47.44Y51.21
X47.44Y29.8
X47.485Y48.585
X47.485Y33.345
X47.485Y27.16
X47.485Y11.92
X47.595Y91.71
X47.595Y76.47
X47.65Y73.445
X47.92Y69.895
X47.92Y67.395
X50.025Y48.585
X50.025Y33.345
X50.025Y27.16
X50.025Y11.92
X50.135Y91.71
X50.135Y76.47
X50.14Y94.41
X50.19Y73.445
X51.045Y69.89
X51.045Y62.27
X52.565Y48.585
X52.565Y33.345
X52.565Y27.16
X52.565Y11.92
X52.675Y91.71
X52.675Y76.47
X52.73Y73.445
X53.585Y69.89
X53.585Y62.27
X55.105Y48.585
X55.105Y33.345
X55.105Y27.16
X55.105Y11.92
X55.11Y30.57
X55.215Y91.71
X55.215Y76.47
X55.24Y94.42
X55.27Y73.445
X56.125Y69.89
X56.125Y62.27
X57.645Y48.585
X57.645Y33.345
X57.645Y27.16
X57.645Y11.92
X57.65Y30.57
X57.755Y91.71
X57.755Y76.47
X58.08Y59.23
X58.08Y56.69
X58.665Y69.89
X58.665Y62.27
X60.185Y48.585
X60.185Y33.345
X60.185Y27.16
X60.185Y11.92
X60.19Y30.57
X60.295Y91.71
X60.295Y76.47
X61.205Y69.89
X61.205Y62.27
X62.725Y48.585
X62.725Y33.345
X62.725Y27.16
X62.725Y11.92
X62.73Y30.57
X62.86Y94.42
X63.745Y69.89
X63.745Y62.27
X65.265Y48.585
X65.265Y33.345
X65.265Y27.16
X65.265Y11.92
X65.27Y30.57
X66.285Y69.89
X66.285Y62.27
X67.805Y48.585
X67.805Y33.345
X67.805Y27.16
X67.805Y11.92
X67.81Y30.57
X70.345Y48.585
X70.345Y33.345
X70.345Y27.16
X70.345Y11.92
X70.35Y30.57
X72.885Y48.585
X72.885Y33.345
X72.885Y27.16
X72.885Y11.92
X72.89Y30.57
X74.02Y81.165
X74.02Y73.545
X74.045Y67.24
X74.045Y59.62
X75.425Y48.585
X75.425Y33.345
X75.425Y27.16
X75.425Y11.92
X75.43Y30.57
X77.145Y81.19
X77.145Y73.57
X77.17Y67.23
X77.17Y59.61
X77.965Y48.585
X77.965Y33.345
X77.965Y27.16
X77.965Y11.92
X80.505Y48.585
X80.505Y33.345
X80.505Y27.16
X80.505Y11.92
X82.39Y75.62
X83.045Y48.585
X83.045Y33.345
X83.045Y27.16
X83.045Y11.92
X84.89Y75.62
X88.02Y24.73
X88.02Y17.11
X92.36Y55.97
X92.36Y53.43
X93.345Y22.185
X93.345Y17.105
T4
X83.05Y71.15
X83.05Y68.61
X83.15Y64.175
X83.15Y61.635
X83.25Y57.1
X83.25Y54.56
T5
X6.92Y76.48
X6.92Y73.94
X6.92Y71.4
X6.92Y68.86
X6.92Y66.32
X6.92Y63.78
X9.9Y46.615
X9.9Y44.075
X9.9Y41.535
X9.9Y38.995
X9.9Y36.455
X9.99Y21.88
X9.99Y19.34
X9.99Y16.8
X9.99Y14.26
X9.99Y11.72
X16.155Y35.22
X16.155Y32.68
X16.155Y30.14
X16.155Y27.6
X16.155Y25.06
X16.155Y22.52
X16.78Y6.77
X16.78Y4.23
X18.695Y35.22
X18.695Y32.68
X18.695Y30.14
X18.695Y27.6
X18.695Y25.06
X18.695Y22.52
X19.32Y6.77
X19.32Y4.23
X21.235Y40.3
X21.235Y37.76
X21.235Y19.98
X21.235Y17.44
X21.86Y6.77
X21.86Y4.23
X23.775Y40.3
X23.775Y37.76
X23.775Y19.98
X23.775Y17.44
X24.4Y6.77
X24.4Y4.23
X26.315Y40.3
X26.315Y37.76
X26.315Y19.98
X26.315Y17.44
X26.94Y6.77
X26.94Y4.23
X28.855Y40.3
X28.855Y37.76
X28.855Y19.98
X28.855Y17.44
X29.48Y6.77
X29.48Y4.23
X31.395Y40.3
X31.395Y37.76
X31.395Y19.98
X31.395Y17.44
X32.02Y6.77
X32.02Y4.23
X33.935Y40.3
X33.935Y37.76
X33.935Y19.98
X33.935Y17.44
X34.56Y6.77
X34.56Y4.23
X36.475Y35.22
X36.475Y32.68
X36.475Y30.14
X36.475Y27.6
X36.475Y25.06
X36.475Y22.52
X37.1Y6.77
X37.1Y4.23
X39.015Y35.22
X39.015Y32.68
X39.015Y30.14
X39.015Y27.6
X39.015Y25.06
X39.015Y22.52
X39.64Y6.77
X39.64Y4.23
X42.18Y6.77
X42.18Y4.23
X44.72Y6.77
X44.72Y4.23
X47.26Y6.77
X47.26Y4.23
X49.8Y6.77
X49.8Y4.23
X52.34Y6.77
X52.34Y4.23
X54.88Y6.77
X54.88Y4.23
X57.42Y6.77
X57.42Y4.23
X59.96Y6.77
X59.96Y4.23
X62.5Y6.77
X62.5Y4.23
X65.04Y6.77
X65.04Y4.23
X65.845Y89.195
X67.58Y6.77
X67.58Y4.23
X68.385Y89.195
X68.81Y81.16
X68.81Y78.62
X68.81Y76.08
X70.12Y6.77
X70.12Y4.23
X70.925Y89.195
X72.66Y6.77
X72.66Y4.23
X73.465Y89.195
X75.2Y6.77
X75.2Y4.23
X76.005Y89.195
X78.545Y89.195
X88.68Y44.31
X88.68Y41.77
X88.68Y39.23
X88.68Y36.69
X88.68Y34.15
X88.68Y31.61
X89.835Y74.89
X90.045Y68.59
X90.045Y62.09
X92.375Y74.89
X94.545Y68.59
X94.545Y62.09
X94.915Y74.89
T6
X5.075Y93.92
X5.075Y5.08
X93.915Y93.92
X93.915Y5.08
T5
G00X85.085Y83.48
M15
G01X85.085Y85.98
M16
G05
G00X89.285Y90.13
M15
G01X86.785Y90.13
M16
G05
G00X91.085Y83.48
M15
G01X91.085Y85.98
M16
G05
T0
M30
