%TF.GenerationSoftware,KiCad,Pcbnew,7.0.7*%
%TF.CreationDate,2024-03-31T17:30:01+09:00*%
%TF.ProjectId,8088_RAM,38303838-5f52-4414-9d2e-6b696361645f,2.1*%
%TF.SameCoordinates,PX4c4c788PY8a48640*%
%TF.FileFunction,Soldermask,Bot*%
%TF.FilePolarity,Negative*%
%FSLAX46Y46*%
G04 Gerber Fmt 4.6, Leading zero omitted, Abs format (unit mm)*
G04 Created by KiCad (PCBNEW 7.0.7) date 2024-03-31 17:30:01*
%MOMM*%
%LPD*%
G01*
G04 APERTURE LIST*
G04 Aperture macros list*
%AMRoundRect*
0 Rectangle with rounded corners*
0 $1 Rounding radius*
0 $2 $3 $4 $5 $6 $7 $8 $9 X,Y pos of 4 corners*
0 Add a 4 corners polygon primitive as box body*
4,1,4,$2,$3,$4,$5,$6,$7,$8,$9,$2,$3,0*
0 Add four circle primitives for the rounded corners*
1,1,$1+$1,$2,$3*
1,1,$1+$1,$4,$5*
1,1,$1+$1,$6,$7*
1,1,$1+$1,$8,$9*
0 Add four rect primitives between the rounded corners*
20,1,$1+$1,$2,$3,$4,$5,0*
20,1,$1+$1,$4,$5,$6,$7,0*
20,1,$1+$1,$6,$7,$8,$9,0*
20,1,$1+$1,$8,$9,$2,$3,0*%
G04 Aperture macros list end*
%ADD10C,1.400000*%
%ADD11R,1.600000X1.600000*%
%ADD12O,1.600000X1.600000*%
%ADD13R,1.500000X1.500000*%
%ADD14C,1.500000*%
%ADD15R,1.700000X1.700000*%
%ADD16O,1.700000X1.700000*%
%ADD17C,1.600000*%
%ADD18R,1.800000X1.800000*%
%ADD19C,1.800000*%
%ADD20C,3.200000*%
%ADD21RoundRect,0.375000X0.375000X1.625000X-0.375000X1.625000X-0.375000X-1.625000X0.375000X-1.625000X0*%
%ADD22RoundRect,0.375000X-1.625000X0.375000X-1.625000X-0.375000X1.625000X-0.375000X1.625000X0.375000X0*%
%ADD23C,0.605000*%
%ADD24C,0.900000*%
G04 APERTURE END LIST*
D10*
X58080000Y59230000D03*
X58080000Y56690000D03*
D11*
X12035000Y76470000D03*
D12*
X14575000Y76470000D03*
X17115000Y76470000D03*
X19655000Y76470000D03*
X22195000Y76470000D03*
X24735000Y76470000D03*
X27275000Y76470000D03*
X29815000Y76470000D03*
X32355000Y76470000D03*
X34895000Y76470000D03*
X37435000Y76470000D03*
X39975000Y76470000D03*
X42515000Y76470000D03*
X45055000Y76470000D03*
X47595000Y76470000D03*
X50135000Y76470000D03*
X52675000Y76470000D03*
X55215000Y76470000D03*
X57755000Y76470000D03*
X60295000Y76470000D03*
X60295000Y91710000D03*
X57755000Y91710000D03*
X55215000Y91710000D03*
X52675000Y91710000D03*
X50135000Y91710000D03*
X47595000Y91710000D03*
X45055000Y91710000D03*
X42515000Y91710000D03*
X39975000Y91710000D03*
X37435000Y91710000D03*
X34895000Y91710000D03*
X32355000Y91710000D03*
X29815000Y91710000D03*
X27275000Y91710000D03*
X24735000Y91710000D03*
X22195000Y91710000D03*
X19655000Y91710000D03*
X17115000Y91710000D03*
X14575000Y91710000D03*
X12035000Y91710000D03*
D13*
X94545000Y68590000D03*
D14*
X94545000Y62090000D03*
X90045000Y68590000D03*
X90045000Y62090000D03*
D15*
X9900000Y36455000D03*
D16*
X9900000Y38995000D03*
X9900000Y41535000D03*
X9900000Y44075000D03*
X9900000Y46615000D03*
D17*
X42520000Y94410000D03*
D12*
X50140000Y94410000D03*
D15*
X9990000Y11720000D03*
D16*
X9990000Y14260000D03*
X9990000Y16800000D03*
X9990000Y19340000D03*
X9990000Y21880000D03*
D18*
X83050000Y68610000D03*
D19*
X83050000Y71150000D03*
D10*
X7060000Y53700000D03*
X7060000Y51160000D03*
D15*
X21235000Y17440000D03*
D16*
X21235000Y19980000D03*
X23775000Y17440000D03*
X23775000Y19980000D03*
X26315000Y17440000D03*
X26315000Y19980000D03*
X28855000Y17440000D03*
X28855000Y19980000D03*
X31395000Y17440000D03*
X31395000Y19980000D03*
X33935000Y17440000D03*
X33935000Y19980000D03*
D11*
X55270000Y73445000D03*
D12*
X52730000Y73445000D03*
X50190000Y73445000D03*
X47650000Y73445000D03*
X45110000Y73445000D03*
X42570000Y73445000D03*
X40030000Y73445000D03*
X37490000Y73445000D03*
X34950000Y73445000D03*
D17*
X44940000Y29800000D03*
X47440000Y29800000D03*
D15*
X39015000Y22520000D03*
D16*
X36475000Y22520000D03*
X39015000Y25060000D03*
X36475000Y25060000D03*
X39015000Y27600000D03*
X36475000Y27600000D03*
X39015000Y30140000D03*
X36475000Y30140000D03*
X39015000Y32680000D03*
X36475000Y32680000D03*
X39015000Y35220000D03*
X36475000Y35220000D03*
D11*
X17485000Y58310000D03*
D12*
X20025000Y58310000D03*
X22565000Y58310000D03*
X25105000Y58310000D03*
X27645000Y58310000D03*
X30185000Y58310000D03*
X32725000Y58310000D03*
D17*
X21680000Y12630000D03*
D12*
X29300000Y12630000D03*
D17*
X8850000Y89130000D03*
X8850000Y86630000D03*
D15*
X78545000Y89195000D03*
D16*
X76005000Y89195000D03*
X73465000Y89195000D03*
X70925000Y89195000D03*
X68385000Y89195000D03*
X65845000Y89195000D03*
D17*
X55240000Y94420000D03*
D12*
X62860000Y94420000D03*
D11*
X17550000Y46060000D03*
D12*
X20090000Y46060000D03*
X22630000Y46060000D03*
X25170000Y46060000D03*
X27710000Y46060000D03*
X30250000Y46060000D03*
X32790000Y46060000D03*
X35330000Y46060000D03*
X37870000Y46060000D03*
X40410000Y46060000D03*
X40410000Y53680000D03*
X37870000Y53680000D03*
X35330000Y53680000D03*
X32790000Y53680000D03*
X30250000Y53680000D03*
X27710000Y53680000D03*
X25170000Y53680000D03*
X22630000Y53680000D03*
X20090000Y53680000D03*
X17550000Y53680000D03*
D15*
X88680000Y31610000D03*
D16*
X88680000Y34150000D03*
X88680000Y36690000D03*
X88680000Y39230000D03*
X88680000Y41770000D03*
X88680000Y44310000D03*
D11*
X75430000Y30570000D03*
D12*
X72890000Y30570000D03*
X70350000Y30570000D03*
X67810000Y30570000D03*
X65270000Y30570000D03*
X62730000Y30570000D03*
X60190000Y30570000D03*
X57650000Y30570000D03*
X55110000Y30570000D03*
D20*
X5075000Y93920000D03*
D17*
X47920000Y69895000D03*
X47920000Y67395000D03*
X40510000Y12630000D03*
D12*
X32890000Y12630000D03*
D17*
X77145000Y81190000D03*
D12*
X77145000Y73570000D03*
D20*
X93915000Y5080000D03*
X93915000Y93920000D03*
D15*
X33935000Y40300000D03*
D16*
X33935000Y37760000D03*
X31395000Y40300000D03*
X31395000Y37760000D03*
X28855000Y40300000D03*
X28855000Y37760000D03*
X26315000Y40300000D03*
X26315000Y37760000D03*
X23775000Y40300000D03*
X23775000Y37760000D03*
X21235000Y40300000D03*
X21235000Y37760000D03*
D21*
X91085000Y84730000D03*
X85085000Y84730000D03*
D22*
X88035000Y90130000D03*
D15*
X68810000Y81160000D03*
D16*
X68810000Y78620000D03*
X68810000Y76080000D03*
D11*
X44945000Y11920000D03*
D12*
X47485000Y11920000D03*
X50025000Y11920000D03*
X52565000Y11920000D03*
X55105000Y11920000D03*
X57645000Y11920000D03*
X60185000Y11920000D03*
X62725000Y11920000D03*
X65265000Y11920000D03*
X67805000Y11920000D03*
X70345000Y11920000D03*
X72885000Y11920000D03*
X75425000Y11920000D03*
X77965000Y11920000D03*
X80505000Y11920000D03*
X83045000Y11920000D03*
X83045000Y27160000D03*
X80505000Y27160000D03*
X77965000Y27160000D03*
X75425000Y27160000D03*
X72885000Y27160000D03*
X70345000Y27160000D03*
X67805000Y27160000D03*
X65265000Y27160000D03*
X62725000Y27160000D03*
X60185000Y27160000D03*
X57645000Y27160000D03*
X55105000Y27160000D03*
X52565000Y27160000D03*
X50025000Y27160000D03*
X47485000Y27160000D03*
X44945000Y27160000D03*
D17*
X14335000Y69020000D03*
X14335000Y66520000D03*
D15*
X6920000Y63780000D03*
D16*
X6920000Y66320000D03*
X6920000Y68860000D03*
X6920000Y71400000D03*
X6920000Y73940000D03*
X6920000Y76480000D03*
D11*
X51045000Y62270000D03*
D12*
X53585000Y62270000D03*
X56125000Y62270000D03*
X58665000Y62270000D03*
X61205000Y62270000D03*
X63745000Y62270000D03*
X66285000Y62270000D03*
X66285000Y69890000D03*
X63745000Y69890000D03*
X61205000Y69890000D03*
X58665000Y69890000D03*
X56125000Y69890000D03*
X53585000Y69890000D03*
X51045000Y69890000D03*
D18*
X83250000Y54560000D03*
D19*
X83250000Y57100000D03*
D17*
X77170000Y67230000D03*
D12*
X77170000Y59610000D03*
D10*
X92360000Y55970000D03*
X92360000Y53430000D03*
D17*
X32919000Y27600000D03*
X32919000Y30100000D03*
X88020000Y24730000D03*
D12*
X88020000Y17110000D03*
D17*
X44940000Y51210000D03*
X47440000Y51210000D03*
X74020000Y81165000D03*
D12*
X74020000Y73545000D03*
D11*
X44945000Y33345000D03*
D12*
X47485000Y33345000D03*
X50025000Y33345000D03*
X52565000Y33345000D03*
X55105000Y33345000D03*
X57645000Y33345000D03*
X60185000Y33345000D03*
X62725000Y33345000D03*
X65265000Y33345000D03*
X67805000Y33345000D03*
X70345000Y33345000D03*
X72885000Y33345000D03*
X75425000Y33345000D03*
X77965000Y33345000D03*
X80505000Y33345000D03*
X83045000Y33345000D03*
X83045000Y48585000D03*
X80505000Y48585000D03*
X77965000Y48585000D03*
X75425000Y48585000D03*
X72885000Y48585000D03*
X70345000Y48585000D03*
X67805000Y48585000D03*
X65265000Y48585000D03*
X62725000Y48585000D03*
X60185000Y48585000D03*
X57645000Y48585000D03*
X55105000Y48585000D03*
X52565000Y48585000D03*
X50025000Y48585000D03*
X47485000Y48585000D03*
X44945000Y48585000D03*
D18*
X83150000Y61635000D03*
D19*
X83150000Y64175000D03*
D17*
X74045000Y67240000D03*
D12*
X74045000Y59620000D03*
D20*
X5075000Y5080000D03*
D17*
X14450000Y53680000D03*
X14450000Y51180000D03*
D11*
X82389888Y75620000D03*
D17*
X84889888Y75620000D03*
D11*
X93345000Y22185000D03*
D12*
X93345000Y17105000D03*
D15*
X16155000Y35220000D03*
D16*
X18695000Y35220000D03*
X16155000Y32680000D03*
X18695000Y32680000D03*
X16155000Y30140000D03*
X18695000Y30140000D03*
X16155000Y27600000D03*
X18695000Y27600000D03*
X16155000Y25060000D03*
X18695000Y25060000D03*
X16155000Y22520000D03*
X18695000Y22520000D03*
D11*
X17475000Y61410000D03*
D12*
X20015000Y61410000D03*
X22555000Y61410000D03*
X25095000Y61410000D03*
X27635000Y61410000D03*
X30175000Y61410000D03*
X32715000Y61410000D03*
X35255000Y61410000D03*
X37795000Y61410000D03*
X40335000Y61410000D03*
X40335000Y69030000D03*
X37795000Y69030000D03*
X35255000Y69030000D03*
X32715000Y69030000D03*
X30175000Y69030000D03*
X27635000Y69030000D03*
X25095000Y69030000D03*
X22555000Y69030000D03*
X20015000Y69030000D03*
X17475000Y69030000D03*
D10*
X9920000Y53700000D03*
X9920000Y51160000D03*
D15*
X89835000Y74890000D03*
D16*
X92375000Y74890000D03*
X94915000Y74890000D03*
D11*
X31220000Y73445000D03*
D12*
X28680000Y73445000D03*
X26140000Y73445000D03*
X23600000Y73445000D03*
X21060000Y73445000D03*
X18520000Y73445000D03*
X15980000Y73445000D03*
X13440000Y73445000D03*
X10900000Y73445000D03*
D17*
X22251000Y27600000D03*
X22251000Y30100000D03*
D15*
X16780000Y4230000D03*
D16*
X16780000Y6770000D03*
X19320000Y4230000D03*
X19320000Y6770000D03*
X21860000Y4230000D03*
X21860000Y6770000D03*
X24400000Y4230000D03*
X24400000Y6770000D03*
X26940000Y4230000D03*
X26940000Y6770000D03*
X29480000Y4230000D03*
X29480000Y6770000D03*
X32020000Y4230000D03*
X32020000Y6770000D03*
X34560000Y4230000D03*
X34560000Y6770000D03*
X37100000Y4230000D03*
X37100000Y6770000D03*
X39640000Y4230000D03*
X39640000Y6770000D03*
X42180000Y4230000D03*
X42180000Y6770000D03*
X44720000Y4230000D03*
X44720000Y6770000D03*
X47260000Y4230000D03*
X47260000Y6770000D03*
X49800000Y4230000D03*
X49800000Y6770000D03*
X52340000Y4230000D03*
X52340000Y6770000D03*
X54880000Y4230000D03*
X54880000Y6770000D03*
X57420000Y4230000D03*
X57420000Y6770000D03*
X59960000Y4230000D03*
X59960000Y6770000D03*
X62500000Y4230000D03*
X62500000Y6770000D03*
X65040000Y4230000D03*
X65040000Y6770000D03*
X67580000Y4230000D03*
X67580000Y6770000D03*
X70120000Y4230000D03*
X70120000Y6770000D03*
X72660000Y4230000D03*
X72660000Y6770000D03*
X75200000Y4230000D03*
X75200000Y6770000D03*
D23*
X6910000Y35210000D03*
X6260000Y59370000D03*
X52300000Y59230000D03*
D24*
X88020000Y21020000D03*
X4370000Y73940000D03*
X85610000Y21020000D03*
X4370000Y81150000D03*
X4370000Y21910000D03*
X4370000Y46610000D03*
X86290000Y43220002D03*
X4370000Y53690000D03*
D23*
X12244100Y27600000D03*
D24*
X86250004Y30529996D03*
X42140000Y21020000D03*
X11950004Y69019998D03*
D23*
X12244600Y21880000D03*
D24*
X12030000Y81160000D03*
D23*
X12240000Y12630000D03*
D24*
X44950000Y43220002D03*
X53839962Y1160000D03*
X29800000Y81160000D03*
X11950000Y53680000D03*
X44940000Y69900000D03*
D23*
X85609999Y1210001D03*
D24*
X44940000Y21020000D03*
D23*
X57760000Y81160000D03*
D24*
X24410000Y1160000D03*
D23*
X30720000Y28600000D03*
X96170000Y84190000D03*
X2480000Y34400000D03*
X27120000Y32010000D03*
X66650000Y41680000D03*
X14880000Y45350000D03*
X5010000Y85630000D03*
X40470000Y48410000D03*
X71000000Y55230000D03*
X41200000Y33110000D03*
X84580000Y92110000D03*
X4290000Y15840000D03*
X91450000Y27710000D03*
X40420000Y59100000D03*
X80260000Y38970000D03*
X88950000Y57160000D03*
X88400000Y49490000D03*
X26310000Y35240000D03*
X95470000Y10370000D03*
X66620000Y39120000D03*
X75550000Y45940000D03*
X40510000Y66410000D03*
X72180000Y92040000D03*
X89640000Y12210000D03*
X83140000Y18490000D03*
X18430000Y95620000D03*
X76060000Y18600000D03*
X83130000Y38910000D03*
X70550000Y18540000D03*
X13720000Y58100000D03*
X2530000Y60450000D03*
X83490000Y8210000D03*
X22380000Y23110000D03*
X10390000Y6060000D03*
X55290000Y14280000D03*
X93510000Y39640000D03*
X33560000Y34890000D03*
X53510000Y84830000D03*
X32580000Y63540000D03*
X55390000Y19400000D03*
X17910000Y51200000D03*
X41270000Y30160000D03*
X79360000Y18700000D03*
X52570000Y14230000D03*
X30280000Y63700000D03*
X46480000Y85790000D03*
X31380000Y35540000D03*
X55010000Y9450000D03*
X18510000Y84190000D03*
X40430000Y44100000D03*
X78460000Y7130000D03*
X37370000Y66410000D03*
X20060000Y64280000D03*
X50650000Y39250000D03*
X14340000Y61650000D03*
X37690000Y63800000D03*
X59850000Y38200000D03*
X27490000Y30080000D03*
X19900000Y66520000D03*
X66690000Y85070000D03*
X41110000Y51460000D03*
X40350000Y63640000D03*
X64460000Y75180000D03*
X50820000Y46330000D03*
X70840000Y67100000D03*
X75550000Y39090000D03*
X96910000Y46480000D03*
X42730000Y26760000D03*
X78060000Y53490000D03*
X37550000Y16960000D03*
X12700000Y35220000D03*
X12810000Y4240000D03*
X13470000Y78540000D03*
X62725000Y45030004D03*
X13389998Y6770000D03*
X42340000Y45030000D03*
X37870000Y49050000D03*
X12741100Y33801337D03*
X42340000Y49050000D03*
X11770000Y49040000D03*
X30240000Y48250000D03*
X13920000Y5470000D03*
X13070000Y32670000D03*
X12550000Y48250000D03*
X60050000Y54710000D03*
X13420000Y31560000D03*
X13232774Y47671102D03*
X13940000Y8690000D03*
X27700000Y47670000D03*
X14510000Y6080000D03*
X12290000Y52490000D03*
X24470000Y29010000D03*
X24470000Y31080000D03*
X13540000Y30150000D03*
X72510000Y71409994D03*
X12230000Y43203600D03*
X52410000Y71410000D03*
X17580000Y10110000D03*
X54370000Y60780000D03*
X25990000Y2130000D03*
X16730000Y43203600D03*
X77320000Y2130000D03*
X24370000Y10110000D03*
X9230000Y60000002D03*
X22626812Y43205451D03*
X77960000Y23979998D03*
X14670000Y9700000D03*
X15068900Y43750000D03*
X26890000Y63660000D03*
X42860000Y71440000D03*
X25180000Y43750000D03*
X42768900Y43750000D03*
X25598900Y9580000D03*
X42400000Y63280000D03*
X17920000Y10830000D03*
X26130000Y10700000D03*
X41700000Y26133944D03*
X41770000Y43320000D03*
X32808388Y42893900D03*
X79360000Y24510000D03*
X46560812Y63303279D03*
X16180000Y44320000D03*
X83060000Y44370000D03*
X35330000Y43420000D03*
X46286670Y44370000D03*
X28220000Y9010000D03*
X15260000Y9010000D03*
X81981541Y22001541D03*
X50826400Y13658600D03*
X18700000Y13820000D03*
X27650000Y13570000D03*
X93840000Y88290000D03*
X70970000Y82750000D03*
X38360000Y70720000D03*
X28830000Y14721100D03*
X38220000Y15160000D03*
X34961100Y70720000D03*
X32360000Y82730000D03*
X72880000Y40690000D03*
X37920000Y40690000D03*
X36860000Y52040000D03*
X68380000Y87420000D03*
X34895000Y87430000D03*
X25500000Y14520000D03*
X35100000Y14600000D03*
X24130000Y50160000D03*
X75400000Y87420000D03*
X37800000Y58290000D03*
X53680000Y46300000D03*
X52460000Y19600000D03*
X51111730Y57641730D03*
X46100000Y19600000D03*
X25230000Y10260000D03*
X24540000Y25660000D03*
X34250000Y25700000D03*
X40690000Y55730000D03*
X35330000Y55400000D03*
X33719703Y10168456D03*
X34470000Y10690000D03*
X78640000Y22570000D03*
X27600000Y22821100D03*
X32490000Y71400000D03*
X26710000Y11870000D03*
X41380000Y35740000D03*
X58660000Y65420000D03*
X31370000Y34430000D03*
X17380000Y38560000D03*
X33540000Y22990000D03*
X36470000Y10540000D03*
X17770000Y65420000D03*
X47260000Y10540000D03*
X58890000Y73540000D03*
X29780000Y55957846D03*
X44960000Y39250000D03*
X44940000Y17440000D03*
X25105000Y55950000D03*
X39433370Y39250000D03*
X39060000Y55930000D03*
X37860000Y41530000D03*
X65260000Y10310000D03*
X72770000Y9590000D03*
X64290000Y41480000D03*
X68950000Y46900000D03*
X70320000Y45640000D03*
X29350000Y31990000D03*
X67580000Y10121100D03*
X18220000Y39250000D03*
X52239999Y67749999D03*
X73560000Y36370000D03*
X53610000Y36290000D03*
X50130000Y84250000D03*
X21701095Y49628905D03*
X81600000Y4160000D03*
X40338900Y49628900D03*
X81850000Y50149998D03*
X42440000Y84250000D03*
X23770000Y32120000D03*
X8430000Y30980000D03*
X27360000Y33898900D03*
X11140000Y33280000D03*
X28770000Y47679998D03*
X32350000Y89440000D03*
X32110000Y47670000D03*
X28560000Y89440000D03*
X38520000Y51030000D03*
X51770000Y37820000D03*
X31420000Y51030000D03*
X58810000Y18330000D03*
X39010000Y37820000D03*
X52440000Y18330000D03*
X40900000Y16240000D03*
X32830000Y32180000D03*
X42520000Y85680000D03*
X55440000Y16200000D03*
X34020000Y85680000D03*
X35950000Y20150000D03*
X40900000Y20150000D03*
X48740000Y62560000D03*
X43130000Y18510000D03*
X50010000Y18510000D03*
X23580000Y63070000D03*
X70340000Y23290000D03*
X10110000Y60950000D03*
X47480000Y15690000D03*
X23540000Y23060000D03*
X39381095Y15690005D03*
X21159998Y51640000D03*
X23410000Y51610000D03*
X32540000Y22970000D03*
X23630000Y66530000D03*
X35255000Y66694998D03*
X33419998Y80010000D03*
X22190000Y80010000D03*
X19650000Y88100000D03*
X25849999Y88099999D03*
X23190000Y88940000D03*
X17130000Y88930000D03*
X6920000Y57320000D03*
X58660000Y64410000D03*
X51040000Y64400000D03*
X43520000Y56490000D03*
X42610000Y28630000D03*
X43523001Y61801533D03*
X48889980Y24036996D03*
X60870000Y24190000D03*
X62650000Y88780000D03*
X34890000Y88780000D03*
X60010000Y67530000D03*
X55280000Y67530000D03*
X55430000Y24680000D03*
X48250000Y9910000D03*
X38790000Y9910000D03*
X28570002Y21860000D03*
X21170000Y22290000D03*
X20950003Y32819997D03*
X19010000Y63370000D03*
X13040000Y63370000D03*
X63170000Y19960000D03*
X36300000Y64650000D03*
X66650002Y37170000D03*
X67800000Y19970000D03*
X24490000Y64650000D03*
X22290000Y50890000D03*
X63758600Y38980000D03*
X26580000Y50890000D03*
X66500000Y24260000D03*
X62740000Y24260000D03*
X31320000Y43720000D03*
X26580000Y44100000D03*
X60180000Y39800000D03*
X45980000Y70900000D03*
X46090000Y24520000D03*
X46780000Y39800000D03*
X60185000Y24800000D03*
X37270000Y38360000D03*
X58570000Y38360000D03*
X29350000Y67210000D03*
X42700000Y38360000D03*
X43770000Y67470000D03*
X30890000Y15252200D03*
X15600000Y42640000D03*
X55090000Y42040000D03*
X21230000Y15250000D03*
X19060000Y42640000D03*
X10290000Y58630000D03*
X23780000Y11800000D03*
X5690000Y20600000D03*
X32720000Y10770000D03*
X32010000Y15210000D03*
X46810000Y15090000D03*
X5560000Y58630000D03*
X77170000Y64180000D03*
X56730000Y89490000D03*
X74050000Y69890000D03*
X55220000Y79370000D03*
M02*
